{"title":"Brewster's Millions (1985) 720p AC3 HDTV no logos 24fps","uid":8624026,"size":2216862827,"categoryP":"video","categoryS":"hd___movies","magnet":"?xt=urn:btih:3ed35c0e25e2c901462b0bcd87b42fbfa139c700&amp;dn=Brewster%27s+Millions+%281985%29+720p+AC3+HDTV+no+logos+24fps&amp;tr=udp%3A%2F%2Ftracker.openbittorrent.com%3A80&amp;tr=udp%3A%2F%2Fopen.demonii.com%3A1337&amp;tr=udp%3A%2F%2Ftracker.coppersurfer.tk%3A6969&amp;tr=udp%3A%2F%2Fexodus.desync.com%3A6969","seeders":1,"leechers":0,"uploader":"nabsltd","files":2,"time":1372454461,"description":"This is my own rip.\n\nThere are other HDTV-sourced torrents of this movie, but all are at 25fps, and all have color and contrast issues.\n\nGeneral\nUnique ID                        : 171250732996591981662849087681691177880 (0x80D5B10405F3F1A9AD046360B914D398)\nFormat                           : Matroska\nFormat version                   : Version 4 / Version 2\nFile size                        : 2.04 GiB\nDuration                         : 1h 41mn\nOverall bit rate mode            : Variable\nOverall bit rate                 : 2 892 Kbps\nEncoded date                     : UTC 2013-06-28 11:24:02\nWriting application              : mkvmerge v6.1.0 ('Old Devil') built on Mar  2 2013 14:32:37\nWriting library                  : libebml v1.3.0 + libmatroska v1.4.0\n\nVideo\nID                               : 1\nFormat                           : AVC\nFormat/Info                      : Advanced Video Codec\nFormat profile                   : &lt;a class=&quot;__cf_email__&quot; href=&quot;/cdn-cgi/l/email-protection&quot; data-cfemail=&quot;d098b9b7b8909ce4fee1&quot;&gt;[email&amp;#160;protected]&lt;/a&gt;&lt;script cf-hash='f9e31' type=&quot;text/javascript&quot;&gt;\n/* &lt;![CDATA[ */!function(){try{var t=&quot;currentScript&quot;in document?document.currentScript:function(){for(var t=document.getElementsByTagName(&quot;script&quot;),e=t.length;e--;)if(t[e].getAttribute(&quot;cf-hash&quot;))return t[e]}();if(t&amp;&amp;t.previousSibling){var e,r,n,i,c=t.previousSibling,a=c.getAttribute(&quot;data-cfemail&quot;);if(a){for(e=&quot;&quot;,r=parseInt(a.substr(0,2),16),n=2;a.length-n;n+=2)i=parseInt(a.substr(n,2),16)^r,e+=String.fromCharCode(i);e=document.createTextNode(e),c.parentNode.replaceChild(e,c)}}}catch(u){}}();/* ]]&gt; */&lt;/script&gt;\nFormat settings, CABAC           : Yes\nFormat settings, ReFrames        : 7 frames\nCodec ID                         : V_MPEG4/ISO/AVC\nDuration                         : 1h 41mn\nBit rate mode                    : Variable\nBit rate                         : 2 450 Kbps\nMaximum bit rate                 : 8.45 Mbps\nWidth                            : 1 280 pixels\nHeight                           : 692 pixels\nDisplay aspect ratio             : 1.850\nFrame rate                       : 23.976 fps\nColor space                      : YUV\nChroma subsampling               : 4:2:0\nBit depth                        : 8 bits\nScan type                        : Progressive\nBits/(Pixel*Frame)               : 0.115\nStream size                      : 1.73 GiB (85%)\nWriting library                  : x264 core 129 r2245 bc13772\nLanguage                         : English\nDefault                          : Yes\nForced                           : No\n\nAudio\nID                               : 2\nFormat                           : AC-3\nFormat/Info                      : Audio Coding 3\nMode extension                   : CM (complete main)\nCodec ID                         : A_AC3\nDuration                         : 1h 41mn\nBit rate mode                    : Constant\nBit rate                         : 384 Kbps\nChannel(s)                       : 2 channels\nChannel positions                : Front: L R\nSampling rate                    : 48.0 KHz\nBit depth                        : 16 bits\nCompression mode                 : Lossy\nStream size                      : 278 MiB (13%)\nLanguage                         : English\nDefault                          : Yes\nForced                           : No\n\nMenu\n00:00:00.000                     : en:Montgomery Brewster\n00:08:23.461                     : en:In Jail\n00:11:27.687                     : en:J.B. Donaldo\n00:13:51.956                     : en:The Sole Heir\n00:16:23.983                     : en:The Conditions\n00:20:51.625                     : en:Your Accountant\n00:35:12.986                     : en:Meeting Warren\n00:42:03.813                     : en:Business Deals\n00:44:34.297                     : en:Bulls vs. the Yanks\n00:49:34.638                     : en:Investments\n00:57:23.065                     : en:I Don't Understand\n01:05:15.954                     : en:None of the Above\n01:13:26.299                     : en:The Big Game\n01:21:20.250                     : en:Addressing the Crowd\n01:23:05.063                     : en:All Over\n01:30:03.587                     : en:Where Is He Now?\n01:34:38.965                     : en:A Terrible Liar\n01:38:07.048                     : en:End Titles\n","torrent":{"xt":"urn:btih:3ed35c0e25e2c901462b0bcd87b42fbfa139c700","amp;dn":"Brewster%27s+Millions+%281985%29+720p+AC3+HDTV+no+logos+24fps","amp;tr":["udp%3A%2F%2Ftracker.openbittorrent.com%3A80","udp%3A%2F%2Fopen.demonii.com%3A1337","udp%3A%2F%2Ftracker.coppersurfer.tk%3A6969","udp%3A%2F%2Fexodus.desync.com%3A6969"],"infoHash":"3ed35c0e25e2c901462b0bcd87b42fbfa139c700","infoHashBuffer":{"type":"Buffer","data":[62,211,92,14,37,226,201,1,70,43,11,205,135,180,47,191,161,57,199,0]},"announce":[],"urlList":[]}}